<svg width="370" height="189" viewBox="0 0 370 189" fill="none" xmlns="http://www.w3.org/2000/svg">
<path d="M156.686 13.5455C156.55 12.3939 155.997 11.5 155.027 10.8636C154.057 10.2273 152.868 9.90909 151.459 9.90909C150.429 9.90909 149.527 10.0758 148.754 10.4091C147.989 10.7424 147.391 11.2008 146.959 11.7841C146.535 12.3674 146.322 13.0303 146.322 13.7727C146.322 14.3939 146.47 14.928 146.766 15.375C147.069 15.8144 147.455 16.1818 147.925 16.4773C148.394 16.7652 148.887 17.0038 149.402 17.1932C149.917 17.375 150.391 17.5227 150.822 17.6364L153.186 18.2727C153.792 18.4318 154.466 18.6515 155.209 18.9318C155.959 19.2121 156.675 19.5947 157.357 20.0795C158.046 20.5568 158.614 21.1705 159.061 21.9205C159.508 22.6705 159.732 23.5909 159.732 24.6818C159.732 25.9394 159.402 27.0758 158.743 28.0909C158.091 29.1061 157.137 29.9129 155.879 30.5114C154.629 31.1098 153.11 31.4091 151.322 31.4091C149.656 31.4091 148.213 31.1402 146.993 30.6023C145.781 30.0644 144.826 29.3144 144.129 28.3523C143.44 27.3902 143.05 26.2727 142.959 25H145.868C145.944 25.8788 146.239 26.6061 146.754 27.1818C147.277 27.75 147.936 28.1742 148.732 28.4545C149.535 28.7273 150.398 28.8636 151.322 28.8636C152.398 28.8636 153.364 28.6894 154.22 28.3409C155.076 27.9848 155.754 27.4924 156.254 26.8636C156.754 26.2273 157.004 25.4848 157.004 24.6364C157.004 23.8636 156.788 23.2348 156.357 22.75C155.925 22.2652 155.357 21.8712 154.652 21.5682C153.947 21.2652 153.186 21 152.368 20.7727L149.504 19.9545C147.686 19.4318 146.247 18.6856 145.186 17.7159C144.125 16.7462 143.595 15.4773 143.595 13.9091C143.595 12.6061 143.947 11.4697 144.652 10.5C145.364 9.52273 146.319 8.76515 147.516 8.22727C148.72 7.68182 150.065 7.40909 151.55 7.40909C153.05 7.40909 154.383 7.67803 155.55 8.21591C156.716 8.74621 157.641 9.47348 158.322 10.3977C159.012 11.322 159.375 12.3712 159.413 13.5455H156.686ZM164.365 31V7.72727H172.229C174.054 7.72727 175.547 8.05682 176.706 8.71591C177.873 9.36742 178.736 10.25 179.297 11.3636C179.857 12.4773 180.138 13.7197 180.138 15.0909C180.138 16.4621 179.857 17.7083 179.297 18.8295C178.744 19.9508 177.888 20.8447 176.729 21.5114C175.57 22.1705 174.085 22.5 172.274 22.5H166.638V20H172.183C173.433 20 174.437 19.7841 175.195 19.3523C175.952 18.9205 176.501 18.3371 176.842 17.6023C177.191 16.8598 177.365 16.0227 177.365 15.0909C177.365 14.1591 177.191 13.3258 176.842 12.5909C176.501 11.8561 175.948 11.2803 175.183 10.8636C174.418 10.4394 173.403 10.2273 172.138 10.2273H167.183V31H164.365ZM184.678 31V7.72727H187.496V28.5H198.314V31H184.678ZM205.496 7.72727V31H202.678V7.72727H205.496ZM209.874 10.2273V7.72727H227.328V10.2273H220.01V31H217.192V10.2273H209.874Z" fill="white"/>
<g clip-path="url(#clip0_3_207)">
<path d="M140.2 51.75H188.58C187.84 53.1844 187.4 54.798 187.4 56.5312C187.4 62.2488 192.06 66.8906 197.8 66.8906H221.28C220.48 70.2773 221.4 73.9629 224.04 76.6125C228.1 80.6566 234.68 80.6566 238.74 76.6125L242.6 72.7676V115.5C242.6 122.532 236.86 128.25 229.8 128.25H181.42C182.16 126.816 182.6 125.202 182.6 123.469C182.6 117.751 177.94 113.109 172.2 113.109H148.72C149.52 109.723 148.6 106.037 145.96 103.388C141.9 99.3434 135.32 99.3434 131.26 103.388L127.4 107.232V64.5C127.4 57.4676 133.14 51.75 140.2 51.75ZM153 64.5H140.2V77.25C147.26 77.25 153 71.5324 153 64.5ZM229.8 102.75C222.74 102.75 217 108.468 217 115.5H229.8V102.75ZM185 109.125C190.092 109.125 194.976 107.11 198.576 103.523C202.177 99.9368 204.2 95.0723 204.2 90C204.2 84.9277 202.177 80.0632 198.576 76.4766C194.976 72.89 190.092 70.875 185 70.875C179.908 70.875 175.024 72.89 171.424 76.4766C167.823 80.0632 165.8 84.9277 165.8 90C165.8 95.0723 167.823 99.9368 171.424 103.523C175.024 107.11 179.908 109.125 185 109.125Z" fill="#2F9C53"/>
<path d="M142 114.105L137.4 118.687H172.2C174.86 118.687 177 120.819 177 123.469C177 126.118 174.86 128.25 172.2 128.25H137.38L141.98 132.832C143.86 134.705 143.86 137.733 141.98 139.586C140.1 141.438 137.06 141.458 135.2 139.586L122.4 126.855C121.5 125.959 121 124.744 121 123.469C121 122.194 121.5 120.979 122.4 120.082L135.2 107.332C137.08 105.459 140.12 105.459 141.98 107.332C143.84 109.205 143.86 112.233 141.98 114.086L142 114.105Z" fill="#766237"/>
<path d="M228 47.168C226.12 45.2953 226.12 42.2672 228 40.4145C229.88 38.5617 232.92 38.5418 234.78 40.4145L247.58 53.1645C248.48 54.0609 248.98 55.2762 248.98 56.5512C248.98 57.8262 248.48 59.0414 247.58 59.9379L234.78 72.6879C232.9 74.5606 229.86 74.5606 228 72.6879C226.14 70.8152 226.12 67.7871 228 65.9344L232.6 61.3523L197.8 61.3125C195.14 61.3125 193 59.1809 193 56.5313C193 53.8816 195.14 51.75 197.8 51.75H232.62L228 47.168Z" fill="#FFD585"/>
</g>
<path d="M117.001 180V150.909H128.649C130.789 150.909 132.574 151.226 134.004 151.861C135.434 152.495 136.509 153.376 137.228 154.503C137.948 155.62 138.308 156.908 138.308 158.366C138.308 159.503 138.081 160.502 137.626 161.364C137.172 162.216 136.547 162.917 135.751 163.466C134.965 164.006 134.065 164.389 133.052 164.616V164.901C134.16 164.948 135.197 165.26 136.163 165.838C137.138 166.416 137.929 167.225 138.535 168.267C139.141 169.299 139.444 170.53 139.444 171.96C139.444 173.504 139.061 174.882 138.294 176.094C137.536 177.296 136.414 178.248 134.927 178.949C133.44 179.65 131.608 180 129.43 180H117.001ZM123.152 174.972H128.166C129.88 174.972 131.13 174.645 131.916 173.991C132.702 173.329 133.095 172.448 133.095 171.349C133.095 170.545 132.901 169.834 132.512 169.219C132.124 168.603 131.57 168.12 130.85 167.77C130.14 167.42 129.293 167.244 128.308 167.244H123.152V174.972ZM123.152 163.082H127.711C128.554 163.082 129.302 162.936 129.956 162.642C130.618 162.339 131.139 161.913 131.518 161.364C131.906 160.814 132.1 160.156 132.1 159.389C132.1 158.338 131.726 157.491 130.978 156.847C130.24 156.203 129.189 155.881 127.825 155.881H123.152V163.082ZM161.415 150.909H167.566V169.801C167.566 171.922 167.059 173.778 166.046 175.369C165.042 176.96 163.636 178.201 161.827 179.091C160.018 179.972 157.911 180.412 155.506 180.412C153.091 180.412 150.98 179.972 149.171 179.091C147.362 178.201 145.956 176.96 144.952 175.369C143.948 173.778 143.446 171.922 143.446 169.801V150.909H149.597V169.276C149.597 170.384 149.838 171.368 150.321 172.23C150.814 173.092 151.505 173.769 152.395 174.261C153.285 174.754 154.322 175 155.506 175C156.699 175 157.736 174.754 158.617 174.261C159.507 173.769 160.194 173.092 160.676 172.23C161.169 171.368 161.415 170.384 161.415 169.276V150.909ZM182.939 180H172.626V150.909H183.024C185.95 150.909 188.469 151.491 190.581 152.656C192.692 153.812 194.316 155.473 195.453 157.642C196.599 159.811 197.172 162.405 197.172 165.426C197.172 168.456 196.599 171.061 195.453 173.239C194.316 175.417 192.683 177.088 190.552 178.253C188.431 179.418 185.893 180 182.939 180ZM178.777 174.73H182.683C184.501 174.73 186.03 174.408 187.271 173.764C188.521 173.111 189.458 172.102 190.083 170.739C190.718 169.366 191.035 167.595 191.035 165.426C191.035 163.277 190.718 161.52 190.083 160.156C189.458 158.793 188.526 157.789 187.285 157.145C186.045 156.501 184.515 156.179 182.697 156.179H178.777V174.73ZM212.04 180H201.728V150.909H212.125C215.051 150.909 217.57 151.491 219.682 152.656C221.794 153.812 223.418 155.473 224.554 157.642C225.7 159.811 226.273 162.405 226.273 165.426C226.273 168.456 225.7 171.061 224.554 173.239C223.418 175.417 221.784 177.088 219.654 178.253C217.533 179.418 214.995 180 212.04 180ZM207.878 174.73H211.784C213.603 174.73 215.132 174.408 216.373 173.764C217.623 173.111 218.56 172.102 219.185 170.739C219.819 169.366 220.137 167.595 220.137 165.426C220.137 163.277 219.819 161.52 219.185 160.156C218.56 158.793 217.627 157.789 216.387 157.145C215.146 156.501 213.617 156.179 211.799 156.179H207.878V174.73ZM227.367 150.909H234.256L240.89 163.438H241.174L247.807 150.909H254.696L244.086 169.716V180H237.978V169.716L227.367 150.909Z" fill="#FFD585"/>
<defs>
<clipPath id="clip0_3_207">
<rect width="128" height="102" fill="white" transform="translate(121 39)"/>
</clipPath>
</defs>
</svg>
